<?xml version="1.0" encoding="utf-8"?>
<!-- Generator: Adobe Illustrator 28.0.0, SVG Export Plug-In . SVG Version: 6.00 Build 0)  -->
<svg version="1.0" id="katman_1" xmlns="http://www.w3.org/2000/svg" xmlns:xlink="http://www.w3.org/1999/xlink" x="0px" y="0px"
	 viewBox="0 0 542.6 651.06" style="enable-background:new 0 0 542.6 651.06;" xml:space="preserve">
<style type="text/css">
	.st0{fill:#24404F;}
	.st1{fill:#9D6C88;}
</style>
<path class="st0" d="M265.66,140.76c-0.13-0.63-0.03-1.08,0.3-1.37c0.27-0.23,0.55-0.25,0.84-0.04c1.28,0.91,2.16,1.74,2.64,2.49
	c2.25,3.52,4.82,6.78,7.69,9.77c-4.87,14.79-7.24,30.26-7.09,46.4c0.29,32.85,16.12,60.11,44.75,76.2
	c25.32,14.24,55.45,17.91,83.97,14.7c22.32-2.51,42.51-10.39,60.56-23.62c3.25-2.39,6.51-4.78,9.77-7.17
	c0.18-0.13,0.38-0.18,0.59-0.15c0.25,0.03,0.44,0.26,0.43,0.52c-0.21,6.06-0.55,12.71-2.1,18.29c-3.67,13.31-11.73,23-24.18,29.07
	c-14.82,7.23-30.51,10.94-47.08,11.12c-10.07,0.11-20.15,0.11-30.24,0.02c-3.14-0.03-7.46,0.69-12.96,2.18
	c-54.47,14.7-115.44,51.93-128.93,111.37c-8.2,36.13-1.94,68.96,18.78,98.51c7.11,10.13,16.02,19.41,26.74,27.82
	c0.39,0.31,0.52,0.22,0.4-0.26c-8.94-36.27-8.84-71.84,19.57-100.03c0.58-0.57,1-0.95,1.25-1.12c1.11-0.75,1.52-0.48,1.25,0.83
	c-3.31,15.6-2.67,33.5-0.59,49.22c3.52,26.66,7.91,48.54,12.61,72.74c3.55,18.29,9.27,44.83,32.39,46.53
	c10.74,0.8,20.72-5.22,21.98-16.02c0.39-3.35,0.36-7.27-0.09-11.77c-3-29.96-4.8-60.62-3.23-90.73c0.99-18.93,5.17-37.1,12.55-54.51
	c9.58-22.6,24.59-39.55,45.66-51.36c16.23-9.09,33.71-14.2,52.45-15.32c2.62-0.16,2.73,0.3,0.33,1.37
	c-5.21,2.33-10.55,5.63-16.04,9.9c-13.69,10.67-25.73,22.98-36.11,36.91c-21.2,28.47-30.95,64.39-31.5,99.51
	c-0.31,19.55,0.6,39.05,2.74,58.5c1.05,9.54,4.54,19.07,10.92,26.33c6.07,6.91,17.63,8.83,25.5,4.63c9.92-5.3,8.57-17.75,7.39-28.7
	c-2.19-20.33-1.8-41.84,2.69-61.83c4.37-19.46,11.4-37.97,21.09-55.54c9.83-17.8,20-35.18,28.26-53.81
	c18.75-42.24,25.42-86.42,21.95-132.32c-1.73-23.03-5.19-45.79-10.36-68.29c-0.27-1.14-0.47-2.29-0.62-3.46
	c-1.97-15.56,19.14-20.96,25.59-7.42c1.46,3.08,2.21,6.7,3.06,9.94c20.14,76.66,16.31,157.7-20.36,228.87
	c-4.79,9.3-10.97,20.76-18.55,34.37c-11.29,20.3-20.57,41.89-24.47,66.05c-2.6,16.16-1.53,32.2-0.84,48.43
	c0.47,11.37-2.71,21.48-9.55,30.34c-12.46,13.88-30.6,16.07-48.07,13.12c-10.15-1.72-15.63-6.02-22.79-12.86
	c-1.03-1.01-1.83-2.19-2.39-3.56c-0.18-0.44-0.79-0.48-1.03-0.07l-2.02,3.5c-1.45,1.41-2.97,2.86-4.57,4.35
	c-5.11,4.75-11.13,7.67-18.06,8.76c-9.92,1.56-22.29,1.6-32.76-1.62c-7.62-2.33-12.21-7.02-18.3-11.58
	c-9.35-9.67-14.63-23.54-17.09-36.6c-0.09-0.48-0.46-0.85-0.94-0.95c-34.64-6.76-68.06-19.99-97.45-39.59
	c-52.92-35.3-91.46-94.21-93.98-158.98c-2.25-57.85,21.87-116.84,73.11-147.65c14.39-8.66,40.43-20.96,55.17-7.14
	c6.14,5.75,8.94,14.5,6.37,22.62c-4.39,13.89-15.65,15.16-27.31,19.85c-32.4,13.03-53.73,40.63-60.34,74.81
	c-9.2,47.59,8.06,94.09,40.38,129.15c5.31,5.77,10.63,11.37,15.96,16.8c0.6,0.61,0.8,0.5,0.6-0.34
	c-18.13-76.07,18.57-146.39,85.04-183.66c9.53-5.35,19.19-10.01,28.98-13.98c1.23-0.51,1.21-0.93-0.08-1.27
	c-1.41-0.37-3-0.99-4.79-1.84c-50.3-24.09-67.37-81.04-54.32-132.41c0.14-0.55,0.08-1.14-0.18-1.64
	c-19.07-38.38-17.86-80.33-6.71-120.34c0.13-0.45,0.53-0.78,1.01-0.8c29.48-1.27,58.65,3.01,85.79,16.64
	c2.73,1.37,8.48,4.72,17.26,10.05c0.89,0.54,1.62,0.5,2.56,0.28c18.6-4.17,37.28-4.97,56.04-2.4c1.47,0.2,1.56-0.06,0.26-0.78
	c-7.53-4.16-15.46-8.29-23.8-12.38c-57.18-28.07-122.88-33.31-183.37-13.22c-40.26,13.36-77.26,38.07-104.81,69.46
	c-57.32,65.3-72.81,158.34-48.08,240.94c3.87,12.92,8.47,25.59,13.78,38.02c1.15,2.71,1.14,5.86-0.05,9.46
	c-2.84,8.58-12.97,13.65-21.14,9.46c-3.85-1.97-6.79-5.22-8.82-9.73c-42.54-94.66-34.27-207.91,27.43-292.05
	C103.4,41.25,183.93,0.66,267.52,0.01c60.09-0.47,116.41,18.05,165.82,51.93c1.22,0.83,2.34,1.71,3.35,2.63
	c0.34,0.3,0.85,0.32,1.21,0.05c24.46-18.43,57.98-26.13,88.04-27.48c0.36-0.02,0.61,0.13,0.75,0.46
	c8.09,18.06,13.14,36.95,15.15,56.67c3.03,29.69-3.26,57.23-15.29,84.77c-1.35,3.08-2.94,5.49-4.79,7.22
	c-6.02,5.64-14.93,5-19.82-1.75c-6.23-8.58,2.19-21.09,5.08-29.87c9.35-28.36,11.03-56.9,1.95-85.7c-0.1-0.32-0.32-0.46-0.65-0.41
	c-23.6,3.22-48.6,15.19-63.88,33.88c-0.33,0.4-0.87,0.54-1.35,0.34c-33.75-14.23-73.05-15.58-107.55-2.79
	c-5.05,1.87-9.82,4.3-14.31,7.27c-0.49,0.32-1.13,0.29-1.6-0.07c-17.62-13.84-37.65-21.53-60.1-23.07
	c-0.35-0.02-0.55,0.14-0.61,0.48c-3.25,19.35-3.29,37.82,2.95,56.64c1.17,3.51,2.35,7.19,3.55,11.06c0.1,0.34,0.19,0.34,0.27-0.01
	C265.77,141.89,265.76,141.39,265.66,140.76z"/>
<path class="st1" d="M277.13,151.61c-2.87-2.99-5.44-6.25-7.69-9.77c-0.48-0.75-1.36-1.58-2.64-2.49c-0.29-0.21-0.57-0.19-0.84,0.04
	c-0.33,0.29-0.43,0.74-0.3,1.37c-6.89-20.61-7.24-40.92-4.49-62.3c0.03-0.26,0.27-0.44,0.52-0.41c13.61,1.83,26.31,5.98,38.08,12.45
	c4.91,2.7,10.36,6.63,15.55,10.05c0.61,0.4,0.62,1.29,0.02,1.7C297.94,114.36,284.32,131.27,277.13,151.61z"/>
<path class="st0" d="M436.09,181.23c0,10.8-8.76,19.56-19.56,19.56s-19.56-8.76-19.56-19.56s8.76-19.56,19.56-19.56
	S436.09,170.43,436.09,181.23z"/>
<path class="st0" d="M311.25,200.42c-9.36-0.03-16.93-8.67-16.89-19.29c0.04-10.62,7.66-19.2,17.03-19.17
	c9.36,0.03,16.93,8.67,16.89,19.29C328.23,191.87,320.61,200.45,311.25,200.42z"/>
<path class="st0" d="M355.74,227.16c-3.25,2.19-4.98,6.06-6.93,9.23c-6.34,7.02-11.2,13.42-20.28,17.19
	c-3.14,1.3-5.14-1.8-6.33-4.16c-0.16-0.33-0.17-0.66-0.04-0.99c0.41-0.98,1.02-1.79,1.84-2.44c6.62-5.27,12.42-10.31,15.76-18.2
	c0.6-1.42,0.41-2.45-0.57-3.09c-4.24-2.79-7.72-7.69-10.06-12.04c-0.16-0.31,0.06-0.68,0.41-0.68l33.47,0.06
	c0.63,0,0.98,0.73,0.58,1.22c-3.04,3.72-5.08,7.78-8.13,11.47C354.92,225.38,355.01,226.19,355.74,227.16z"/>
<path class="st1" d="M355.74,227.16c4.63,6.49,10.39,11.89,17.27,16.22c1.8,1.13,5.01,2.59,7.27,4.31c0.45,0.34,0.61,0.94,0.38,1.45
	c-0.98,2.21-2.48,3.96-4.49,5.27c-0.3,0.2-0.63,0.28-0.98,0.23c-10.78-1.47-20.6-9.3-26.38-18.25
	C350.76,233.22,352.49,229.35,355.74,227.16z"/>
<path class="st1" d="M510.87,629.79c-1.65-0.67-4.29-1-7.93-1.01c-18.42-0.03-36.91-0.01-55.48,0.07
	c-12.46,13.88-30.6,16.07-48.07,13.12c-10.15-1.72-15.63-6.02-22.79-12.86c-1.03-1.01-1.83-2.19-2.39-3.56
	c-0.18-0.44-0.79-0.48-1.03-0.07l-2.02,3.5c-1.45,1.41-2.97,2.86-4.57,4.35c-5.11,4.75-11.13,7.67-18.06,8.76
	c-9.92,1.56-22.29,1.6-32.76-1.62c-7.62-2.33-12.21-7.02-18.3-11.58c-1.46,0.31-3.28-0.11-4.6-0.11c-54.95,0-109.9,0.02-164.85,0.06
	c-2.24,0-4.47,0.11-6.7,0.33c-7.4,0.73-11.12,7.73-8.94,14.74c2.02,6.5,8.01,7.13,14.59,7.13c126.19,0.03,252.37,0.03,378.55,0.01
	C517.89,651.04,522.61,634.58,510.87,629.79z"/>
</svg>
