<?xml version="1.0" standalone="no"?>
<!DOCTYPE svg PUBLIC "-//W3C//DTD SVG 20010904//EN"
 "http://www.w3.org/TR/2001/REC-SVG-20010904/DTD/svg10.dtd">
<svg version="1.0" xmlns="http://www.w3.org/2000/svg"
 width="392.000000pt" height="374.000000pt" viewBox="0 0 392.000000 374.000000"
 preserveAspectRatio="xMidYMid meet">

<g transform="translate(0.000000,374.000000) scale(0.100000,-0.100000)"
fill="#000000" stroke="none">
<path d="M2512 3657 c-7 -18 -12 -39 -12 -47 0 -7 -10 -34 -22 -59 -28 -58
-182 -294 -204 -312 -13 -11 -78 -16 -273 -21 -217 -5 -486 -27 -541 -43 -45
-13 -255 -45 -297 -45 -184 1 -439 130 -526 267 -57 90 -71 39 -41 -143 l17
-97 -24 -18 c-13 -10 -31 -19 -39 -19 -8 0 -21 -4 -29 -9 -23 -15 2 -37 49
-45 37 -6 57 -26 26 -26 -28 0 -25 -29 4 -50 32 -23 39 -40 16 -40 -30 0 -27
-22 7 -56 46 -47 49 -63 20 -120 -52 -103 -103 -154 -251 -251 -99 -65 -172
-93 -246 -93 -121 0 -65 -62 92 -101 28 -7 52 -15 52 -18 0 -3 -31 -24 -68
-47 -85 -51 -87 -67 -7 -74 l60 -5 -65 -26 c-47 -20 -65 -32 -65 -45 0 -15 10
-20 42 -25 24 -3 46 -8 49 -12 4 -4 -18 -18 -49 -32 -32 -13 -57 -30 -57 -37
0 -7 19 -23 43 -36 23 -13 52 -31 65 -42 l23 -19 -36 -49 c-19 -28 -42 -53
-50 -56 -14 -5 -16 -38 -3 -51 3 -4 31 -2 62 4 38 7 65 7 83 0 14 -5 67 -51
117 -102 l91 -92 -45 -5 c-53 -6 -120 -43 -193 -106 -97 -84 -118 -109 -152
-179 -110 -227 -82 -372 109 -569 53 -55 96 -108 96 -119 0 -43 -34 -246 -49
-297 -17 -55 -17 -80 0 -80 14 0 46 72 53 120 12 83 39 215 46 223 3 4 29 -15
57 -43 156 -153 230 -196 382 -225 180 -35 511 0 866 90 180 45 479 131 505
144 8 5 70 27 138 51 100 34 128 40 150 32 106 -39 182 -41 253 -7 61 29 84
94 58 162 -7 20 -7 29 1 31 7 3 27 18 46 34 26 23 34 38 34 65 0 38 -23 89
-42 95 -9 3 0 19 25 46 20 23 37 50 37 61 0 41 -108 160 -147 161 -23 0 -25
22 -5 43 54 58 48 129 -13 164 -88 50 -203 18 -371 -103 -44 -31 -90 -60 -104
-65 -14 -5 -41 -18 -60 -28 -94 -51 -287 -115 -450 -150 -262 -55 -636 -83
-724 -54 -92 31 -189 132 -205 216 l-9 42 -1 -41 c-2 -61 42 -138 105 -187 29
-23 51 -43 50 -45 -7 -6 -221 19 -239 29 -13 7 -19 5 -23 -6 -4 -9 -4 -18 -1
-21 30 -31 449 -43 652 -19 447 53 880 177 1004 287 124 111 266 161 347 122
24 -12 40 -27 42 -41 4 -25 -47 -87 -89 -109 -16 -8 -29 -19 -29 -25 0 -10 1
-11 73 -29 64 -17 150 -92 142 -124 -17 -59 -48 -86 -100 -86 -16 0 -25 -6
-25 -15 0 -9 9 -15 24 -15 37 0 86 -46 86 -80 0 -54 -16 -78 -57 -86 -53 -9
-54 -10 -37 -56 25 -73 21 -87 -47 -142 -48 -40 -154 -18 -197 41 l-20 27 -79
-32 c-44 -18 -122 -46 -174 -61 -52 -16 -139 -46 -194 -66 -127 -47 -156 -56
-345 -106 -365 -98 -583 -133 -757 -120 -99 8 -120 13 -192 47 -45 21 -81 41
-81 45 0 4 -24 22 -53 40 -109 67 -332 279 -403 385 -74 109 -94 194 -71 308
21 100 60 166 157 265 101 103 147 124 272 129 76 3 98 7 98 18 0 8 -9 14 -19
14 -27 0 -162 110 -194 158 -26 41 -123 102 -159 102 -22 0 -22 8 -3 34 8 11
12 29 9 39 -4 11 0 24 7 29 10 7 11 11 2 14 -22 9 -93 64 -93 72 1 4 20 16 43
28 55 27 61 57 15 73 l-33 12 39 22 c71 40 73 71 4 87 l-33 7 68 32 c39 18 67
37 65 44 -2 7 -46 26 -97 42 l-94 31 49 11 c184 43 354 166 439 317 50 89 54
118 21 160 -20 27 -24 41 -20 65 4 19 2 37 -7 47 -7 9 -12 31 -11 49 2 25 -3
38 -20 49 l-22 16 32 27 32 28 -19 55 c-10 30 -21 75 -25 99 l-7 44 43 -39
c102 -94 241 -167 372 -195 50 -11 98 -22 106 -26 19 -8 41 -6 115 12 70 17
277 49 417 66 135 16 529 9 552 -10 15 -12 21 -9 58 30 76 82 238 355 238 402
0 9 5 17 10 17 6 0 10 -15 10 -32 1 -18 7 -49 14 -68 8 -19 23 -60 34 -90 16
-43 25 -55 41 -54 24 1 24 2 12 -30 -7 -18 -6 -28 5 -36 9 -8 14 -32 14 -69 0
-103 64 -258 118 -285 15 -7 71 -19 125 -26 l97 -13 0 -37 c0 -34 -5 -41 -55
-75 -30 -21 -55 -41 -55 -45 0 -11 55 -60 68 -60 16 0 15 -24 -3 -84 -8 -27
-22 -90 -30 -140 -19 -109 -47 -199 -88 -281 -16 -32 -44 -98 -62 -145 -49
-124 -72 -173 -96 -204 -34 -43 -108 -185 -100 -191 26 -15 168 211 242 385
112 264 182 537 195 760 4 58 11 113 16 122 5 10 5 25 -1 35 -5 10 -15 45 -21
78 -9 43 -21 69 -43 92 -26 27 -31 43 -35 93 -3 36 1 73 8 93 24 58 81 118
137 144 69 32 97 24 129 -37 30 -55 47 -57 55 -7 11 69 74 129 150 142 47 8
79 -9 110 -58 20 -33 22 -101 4 -154 -6 -19 -4 -23 13 -23 12 0 24 5 28 11 8
13 113 5 143 -11 74 -39 64 -133 -16 -166 -49 -21 -37 -37 30 -38 68 -1 95
-23 107 -87 16 -88 -54 -172 -166 -200 -37 -10 -42 -14 -48 -47 -3 -21 -6 -52
-6 -70 0 -37 -47 -240 -86 -370 -81 -275 -143 -420 -223 -525 -29 -37 -64 -87
-79 -112 -77 -127 -251 -371 -281 -393 l-33 -26 7 -100 c13 -206 -37 -484
-147 -814 -23 -67 -38 -125 -34 -129 13 -14 41 14 68 68 30 62 111 413 133
581 8 61 18 167 21 237 7 129 17 164 64 209 45 44 162 216 330 486 96 155 218
482 259 696 40 207 47 225 116 275 125 90 173 162 156 234 -10 48 -46 95 -83
111 -32 14 -33 18 -13 44 18 24 19 85 3 121 -16 35 -125 87 -165 79 -29 -6
-30 -5 -36 40 -11 82 -59 152 -119 175 -53 20 -151 -20 -205 -84 l-36 -44 -28
20 c-83 59 -233 -27 -284 -164 -14 -37 -17 -65 -13 -131 5 -74 10 -90 37 -128
17 -24 34 -58 37 -77 l7 -34 -64 7 c-111 12 -131 21 -167 75 -42 62 -71 189
-53 236 10 26 9 32 -8 46 -19 16 -19 16 6 41 31 32 23 48 -23 48 -32 0 -36 4
-58 53 -13 29 -29 78 -36 107 -7 30 -17 72 -22 93 -11 46 -30 48 -46 4z m478
-897 c0 -5 -5 -10 -11 -10 -5 0 -7 5 -4 10 3 6 8 10 11 10 2 0 4 -4 4 -10z"/>
<path d="M2501 3417 c-34 -78 -185 -297 -221 -320 -34 -21 -23 -35 33 -42 79
-10 131 -3 135 18 3 15 -5 17 -57 17 -34 0 -61 2 -61 4 0 3 26 41 58 86 32 45
72 107 88 138 l29 57 2 -60 c3 -82 24 -228 34 -240 6 -5 13 -5 20 2 8 8 6 33
-6 89 -9 44 -19 126 -21 183 -2 57 -6 106 -9 109 -2 3 -13 -16 -24 -41z"/>
<path d="M3341 3405 c-35 -40 -38 -60 -15 -93 12 -17 25 -22 59 -22 38 0 47 4
69 33 28 36 34 85 14 105 -7 7 -31 12 -54 12 -35 0 -47 -5 -73 -35z"/>
<path d="M3043 3361 c-37 -27 -53 -59 -53 -107 0 -47 90 -60 138 -19 41 35 47
80 15 123 -30 40 -49 40 -100 3z"/>
<path d="M3574 3283 c-41 -44 -42 -72 -5 -105 23 -21 38 -27 54 -23 73 21 99
84 53 130 -33 33 -70 32 -102 -2z"/>
<path d="M710 3164 c0 -45 37 -108 105 -180 35 -38 61 -71 56 -74 -4 -3 -24
-16 -45 -29 -41 -26 -43 -44 -5 -49 18 -2 31 6 47 28 12 16 31 30 42 30 39 0
29 22 -42 93 -45 44 -87 96 -106 134 -38 72 -52 85 -52 47z"/>
<path d="M3315 3156 c-106 -48 -133 -183 -47 -241 65 -44 144 -32 215 34 33
32 37 40 37 86 0 62 -18 91 -74 116 -48 22 -89 23 -131 5z"/>
<path d="M3630 3040 c-29 -27 -32 -35 -27 -68 8 -46 32 -65 72 -57 47 9 75 42
75 90 0 22 -5 46 -12 53 -23 23 -74 14 -108 -18z"/>
<path d="M1415 2740 c-81 -12 -244 -69 -320 -110 -81 -45 -139 -103 -130 -131
4 -11 10 -19 15 -19 5 0 42 -29 81 -64 39 -36 86 -72 104 -80 17 -9 84 -21
147 -27 213 -23 422 19 593 116 87 50 131 87 141 119 3 12 15 31 26 42 31 34
7 58 -96 99 -75 30 -112 38 -235 50 -156 16 -245 17 -326 5z m405 -64 c200
-47 211 -54 165 -122 -61 -90 -195 -163 -345 -188 -314 -52 -465 -29 -563 88
-62 73 -64 82 -18 111 71 44 230 106 324 126 123 25 291 20 437 -15z"/>
<path d="M1418 2654 c-53 -27 -72 -57 -82 -126 -9 -57 2 -79 52 -113 68 -46
166 -27 245 48 20 20 37 38 37 41 0 3 -25 5 -56 5 -40 -1 -61 4 -73 16 -15 15
-14 18 8 36 13 10 41 22 62 25 45 7 49 21 16 52 -50 47 -137 54 -209 16z"/>
<path d="M1916 2312 c-4 -6 -3 -12 1 -14 5 -2 87 0 183 6 120 6 221 6 320 -1
143 -11 161 -10 146 5 -12 11 -643 15 -650 4z"/>
<path d="M1439 2276 c-136 -36 -146 -122 -18 -144 l44 -8 -2 -54 c-3 -66 -18
-97 -55 -116 -70 -36 -201 -83 -265 -94 -82 -15 -196 -9 -238 11 -35 17 -75
73 -75 105 0 24 1 24 108 24 114 0 152 6 152 23 0 7 -41 8 -125 3 -69 -3 -125
-3 -125 1 0 5 9 19 19 32 17 22 23 23 99 20 80 -4 105 2 60 15 -13 3 -47 6
-76 6 -33 0 -51 4 -47 10 3 6 15 10 26 10 22 0 24 11 7 28 -20 20 -46 14 -69
-17 l-21 -29 -169 -7 c-93 -4 -169 -11 -169 -16 0 -4 75 -5 166 -2 l166 6 -16
-30 c-19 -38 -37 -43 -156 -43 -102 0 -140 -6 -140 -22 0 -6 17 -8 43 -5 23 4
86 9 140 13 l97 6 0 -40 c0 -62 15 -88 67 -119 46 -27 53 -28 181 -28 l132 0
0 -36 c0 -49 36 -163 66 -211 13 -21 43 -52 66 -68 35 -26 50 -30 102 -30 79
0 153 34 259 120 94 76 133 142 139 235 l3 60 80 8 c151 14 270 56 308 108 11
15 20 48 22 75 l3 49 138 -2 c107 -2 135 0 125 10 -8 8 -58 13 -141 15 l-128
4 -13 29 c-6 16 -9 32 -6 35 6 6 231 -12 265 -22 12 -4 22 -2 22 4 0 16 -37
22 -165 28 -66 3 -139 10 -163 16 -32 8 -46 8 -55 -1 -7 -7 -47 -11 -104 -11
-55 0 -93 -4 -93 -10 0 -6 45 -9 117 -8 l117 1 23 -29 23 -29 -23 -7 c-12 -3
-52 -6 -89 -7 -38 -1 -70 -6 -74 -12 -5 -9 19 -10 90 -4 94 7 96 6 96 -15 0
-55 -74 -112 -194 -149 -60 -18 -96 -22 -247 -22 -112 -1 -191 3 -213 11 l-36
12 0 68 c0 38 -4 72 -10 75 -14 9 -12 27 3 22 19 -6 92 18 127 43 46 33 39 68
-20 98 -49 24 -92 27 -161 8z m1 -426 l0 -80 -39 0 c-42 0 -47 6 -53 67 -2 27
3 37 37 62 22 17 43 31 48 31 4 0 7 -36 7 -80z m104 45 l39 -6 -7 -47 c-7 -54
-26 -72 -73 -72 l-33 0 0 71 c0 62 2 70 18 66 9 -3 34 -8 56 -12z m-107 -261
c-3 -3 -12 -4 -19 -1 -8 3 -5 6 6 6 11 1 17 -2 13 -5z m88 -4 c-3 -5 0 -10 7
-11 26 -1 -68 -38 -99 -39 -17 0 -33 -5 -35 -12 -3 -8 -9 -8 -24 0 -17 10 -17
11 -1 12 9 0 17 4 17 9 0 5 -8 12 -17 14 -11 3 -5 5 12 6 17 1 44 8 60 16 36
16 89 19 80 5z m72 4 c-3 -3 -12 -4 -19 -1 -8 3 -5 6 6 6 11 1 17 -2 13 -5z
m-209 -11 c-10 -2 -26 -2 -35 0 -10 3 -2 5 17 5 19 0 27 -2 18 -5z m-93 -13
c-3 -5 -11 -10 -16 -10 -6 0 -7 5 -4 10 3 6 11 10 16 10 6 0 7 -4 4 -10z m335
2 c0 -5 -10 -17 -22 -28 -12 -10 -18 -14 -15 -7 4 6 4 13 0 16 -5 2 -2 2 6 0
8 -2 11 2 7 12 -3 9 0 15 9 15 8 0 15 -4 15 -8z m-52 -44 c-3 -7 -15 -14 -28
-14 -23 -1 -23 -1 -5 12 23 17 38 18 33 2z m-236 -32 c4 -7 41 -11 90 -10 49
0 73 -3 58 -7 -63 -18 -166 0 -186 32 -7 13 30 -2 38 -15z m90 17 c-6 -2 -10
-9 -6 -14 6 -11 -7 -12 -33 -2 -16 6 -15 8 7 14 29 8 51 10 32 2z m58 -3 c0
-5 -7 -10 -15 -10 -8 0 -15 5 -15 10 0 6 7 10 15 10 8 0 15 -4 15 -10z"/>
<path d="M835 2209 c-137 -9 -285 -26 -293 -34 -15 -15 16 -15 113 0 72 10
166 15 281 14 168 -1 200 2 189 22 -7 10 -101 10 -290 -2z"/>
<path d="M1725 1557 c-44 -42 -217 -112 -311 -127 -115 -19 -223 15 -264 82
-10 16 -15 38 -13 49 3 10 0 19 -6 19 -43 0 -1 -106 56 -144 57 -37 120 -48
211 -36 151 20 208 35 248 66 22 16 62 40 91 53 58 27 72 46 43 61 -16 9 -26
4 -55 -23z"/>
</g>
</svg>
