<?xml version="1.0" standalone="no"?>
<!DOCTYPE svg PUBLIC "-//W3C//DTD SVG 20010904//EN"
 "http://www.w3.org/TR/2001/REC-SVG-20010904/DTD/svg10.dtd">
<svg version="1.0" xmlns="http://www.w3.org/2000/svg"
 width="4000.000000pt" height="3768.000000pt" viewBox="0 0 4000.000000 3768.000000"
 preserveAspectRatio="xMidYMid meet">

<g transform="translate(0.000000,3768.000000) scale(0.100000,-0.100000)"
fill="#000000" stroke="none">
<path d="M18160 33614 c-14 -2 -194 -10 -400 -19 -206 -8 -458 -20 -560 -25
-801 -43 -1495 -188 -2225 -465 -83 -32 -321 -115 -530 -185 -688 -231 -1150
-402 -1225 -452 -52 -36 -778 -648 -1195 -1008 -143 -123 -390 -353 -550 -510
-159 -157 -302 -296 -317 -309 l-27 -24 -37 79 c-20 44 -170 402 -335 797
-164 394 -310 735 -324 757 -78 123 -173 136 -421 55 -161 -53 -420 -192 -507
-274 -68 -63 -86 -161 -44 -238 12 -23 46 -77 75 -120 29 -42 70 -123 91 -178
22 -55 276 -759 566 -1565 290 -806 594 -1652 677 -1880 336 -926 482 -1379
746 -2300 156 -545 195 -691 358 -1350 223 -902 256 -1008 536 -1735 93 -241
199 -523 235 -625 134 -379 634 -1887 650 -1960 30 -138 23 -309 -25 -585
-114 -659 -123 -797 -145 -2145 -2 -94 -2 -96 45 -192 54 -110 89 -220 113
-362 l16 -99 -37 -38 c-27 -28 -86 -60 -226 -125 -509 -235 -957 -519 -1378
-874 -173 -146 -481 -449 -668 -658 -325 -362 -348 -415 -418 -947 -24 -181
-28 -246 -29 -465 0 -264 3 -298 51 -545 131 -671 340 -1192 672 -1680 162
-239 310 -413 602 -710 109 -112 194 -206 205 -230 35 -74 32 -145 -13 -305
-160 -573 -340 -1587 -441 -2480 -87 -772 -123 -1296 -125 -1825 0 -257 3
-316 27 -520 30 -248 193 -1251 232 -1428 30 -134 76 -230 156 -327 70 -85
140 -224 183 -365 63 -205 180 -358 334 -438 171 -90 559 -147 1138 -167 482
-17 723 5 1004 95 95 30 106 32 276 50 328 33 558 110 868 289 79 45 180 76
251 76 20 0 150 -16 288 -35 1529 -209 3142 -254 5382 -149 297 14 686 28 865
31 343 6 848 -9 934 -29 69 -15 124 -72 154 -160 47 -136 142 -202 342 -241
98 -18 150 -22 350 -22 258 0 352 13 590 77 210 56 192 55 310 15 136 -46 249
-64 478 -77 103 -6 252 -15 332 -20 305 -19 489 21 676 145 115 77 150 91 298
115 246 41 391 106 517 232 67 67 140 115 203 133 80 22 454 73 631 85 208 14
290 31 402 86 328 158 499 575 587 1434 57 550 46 993 -54 2195 l-49 590 -126
760 c-194 1170 -276 1558 -470 2232 -36 122 -69 250 -75 285 -16 99 -12 262
12 486 32 302 32 662 0 862 -132 829 -173 1032 -262 1300 -126 376 -288 682
-540 1019 -69 92 -134 183 -144 203 l-19 36 40 49 c444 536 633 790 821 1108
87 148 133 260 177 435 19 74 57 203 85 285 130 382 175 672 175 1130 0 341
-3 368 -81 840 -98 588 -155 833 -284 1216 -255 763 -601 1482 -1114 2318 -74
119 -105 204 -113 300 -5 66 0 98 35 246 123 513 198 1116 237 1890 8 171 20
360 25 420 13 144 13 456 0 586 -22 218 -80 500 -145 709 -61 192 -214 452
-327 554 -190 172 -445 192 -788 61 -354 -135 -660 -336 -1124 -739 -433 -374
-713 -646 -1003 -971 -333 -374 -345 -387 -380 -401 -51 -22 -76 -18 -263 41
-880 278 -1656 421 -2630 487 -251 17 -982 17 -1125 0 -444 -51 -900 -144
-1485 -301 -308 -82 -316 -84 -356 -71 -44 15 -65 47 -97 150 -38 122 -69 168
-229 346 -447 498 -1091 1074 -1504 1344 -138 91 -343 192 -459 226 -77 24
-108 27 -215 27 -139 0 -200 -15 -292 -74 -147 -95 -222 -246 -287 -579 -45
-229 -198 -1304 -255 -1795 -101 -854 -121 -1200 -107 -1890 3 -178 2 -196
-22 -288 -46 -175 -141 -342 -285 -503 -31 -35 -64 -64 -73 -64 -33 0 -60 49
-104 191 -24 79 -121 371 -215 649 -231 680 -305 930 -390 1315 -40 182 -101
388 -195 660 -95 274 -932 2792 -1090 3280 -191 586 -274 807 -460 1215 -205
449 -224 509 -182 574 61 93 218 100 1492 65 448 -12 477 -12 610 7 193 26
246 24 320 -13 127 -64 293 -102 535 -123 509 -43 908 -117 1266 -236 315
-105 1052 -396 1679 -664 567 -242 855 -353 1370 -527 1064 -359 1841 -539
3605 -839 328 -56 340 -57 570 -62 609 -11 1188 93 2492 447 222 60 604 162
850 225 516 134 746 198 1053 296 121 38 315 95 430 126 628 168 1181 357
1584 543 312 143 414 240 415 391 1 108 -58 190 -179 249 -34 17 -363 140
-732 275 -368 134 -684 251 -700 260 -29 15 -59 68 -48 86 3 5 120 74 260 155
345 197 835 491 964 578 124 82 210 148 303 230 80 72 291 301 320 348 69 112
88 271 44 364 -30 63 -66 97 -141 131 -54 25 -71 28 -180 28 -66 1 -230 -5
-365 -13 -792 -45 -2024 52 -2910 229 -460 92 -697 157 -1258 341 -493 162
-686 218 -1137 329 -198 49 -432 111 -520 139 -204 65 -333 92 -465 96 -76 2
-175 17 -360 54 -786 158 -1933 318 -2760 386 -209 17 -758 50 -1080 65 -195
9 -699 12 -760 4z m-20 -331 c118 -32 225 -110 419 -304 397 -398 662 -868
795 -1411 148 -599 112 -1086 -115 -1567 -143 -304 -361 -513 -675 -650 -180
-78 -346 -119 -701 -175 -122 -20 -253 -43 -290 -51 -88 -21 -213 -21 -294 0
-35 9 -199 68 -364 132 -579 221 -1055 393 -1211 437 -49 13 -222 54 -384 91
-162 37 -296 68 -297 69 -9 9 57 112 106 168 146 166 260 413 290 632 48 345
-81 727 -354 1046 -171 200 -498 474 -710 595 -27 15 -87 55 -133 89 l-82 60
23 23 c25 25 738 289 1182 438 770 257 1233 337 2185 376 151 6 313 14 360 19
100 9 174 4 250 -17z m1325 3 c11 -17 28 -25 61 -29 106 -12 190 -90 213 -199
36 -165 36 -288 0 -469 -27 -135 -62 -236 -131 -372 l-60 -118 -137 228 c-75
125 -165 278 -200 338 -34 61 -90 144 -124 186 -34 42 -91 113 -127 157 -67
83 -140 197 -140 219 0 44 164 68 401 60 114 -4 149 -2 164 9 29 21 63 17 80
-10z m1025 -106 c514 -61 804 -101 830 -115 39 -20 78 -69 89 -113 22 -80 34
-299 22 -395 -39 -331 -351 -991 -542 -1145 -35 -29 -66 -52 -69 -52 -3 0 -86
111 -184 248 -169 234 -189 257 -376 442 -109 107 -210 211 -224 231 l-26 36
16 69 c39 169 46 236 53 484 7 283 10 297 74 325 44 19 48 19 337 -15z m1570
-210 c251 -41 738 -131 850 -156 252 -58 290 -92 290 -257 0 -154 -97 -485
-206 -706 -153 -311 -383 -581 -493 -581 -52 0 -71 17 -126 112 -141 244 -344
476 -587 672 -49 38 -88 74 -88 80 0 6 11 175 25 376 26 383 35 435 79 463 44
29 57 29 256 -3z m1790 -355 c420 -85 766 -193 937 -292 53 -31 56 -51 25
-168 -87 -329 -300 -696 -564 -971 -99 -103 -187 -152 -240 -135 -44 14 -83
56 -142 153 -101 165 -282 370 -443 500 l-65 53 4 75 c4 53 17 110 47 195 26
75 58 203 87 350 25 126 47 238 50 247 11 37 94 35 304 -7z m-10087 -406 c123
-19 434 -173 634 -315 180 -127 378 -321 495 -485 83 -115 170 -286 200 -394
30 -105 32 -315 5 -415 -28 -102 -109 -258 -185 -356 -143 -185 -297 -299
-437 -325 -205 -38 -464 128 -585 376 -69 139 -186 585 -230 873 -38 251 -58
879 -32 995 15 65 13 65 135 46z m11850 -108 c558 -155 729 -196 1027 -250
490 -88 903 -132 1735 -186 761 -48 849 -50 1120 -14 169 22 203 23 230 5 19
-12 25 -25 25 -51 0 -75 -239 -301 -510 -482 -112 -75 -373 -229 -893 -528
-472 -272 -527 -309 -564 -383 -24 -49 -24 -145 0 -193 34 -68 122 -143 235
-199 132 -66 613 -249 1036 -396 164 -57 319 -115 343 -130 44 -25 44 -26 26
-46 -39 -44 -110 -81 -280 -149 -495 -197 -934 -341 -1443 -474 -118 -31 -303
-83 -410 -115 -395 -119 -870 -252 -1445 -406 -324 -86 -612 -163 -640 -171
-67 -18 -109 -16 -134 5 -19 14 -25 39 -41 167 -34 264 -74 431 -147 613 -66
165 -65 170 95 359 248 291 399 626 447 992 19 142 19 432 0 570 -39 280 -149
538 -315 743 -108 132 -130 173 -130 238 1 35 9 75 24 110 13 30 57 142 97
247 80 208 82 210 157 212 19 1 178 -39 355 -88z m-12320 -94 c13 -60 20 -170
27 -388 5 -167 14 -344 20 -394 32 -280 95 -568 189 -857 72 -224 67 -273 -31
-313 -89 -36 -863 -45 -1276 -14 -210 15 -415 4 -614 -33 -137 -25 -174 -19
-238 38 -104 94 -73 240 93 441 194 236 274 316 561 567 667 582 1213 1036
1245 1036 4 0 15 -38 24 -83z m-3135 -41 c70 -37 81 -58 372 -747 268 -632
310 -742 310 -810 0 -36 -6 -47 -38 -78 -21 -20 -87 -65 -148 -100 -60 -35
-123 -72 -140 -82 l-31 -19 -13 28 c-77 166 -357 913 -530 1417 -54 157 -61
187 -58 238 4 49 9 62 38 92 23 24 55 42 95 55 73 23 107 24 143 6z m9797 -75
c54 -31 182 -159 283 -283 153 -188 270 -398 341 -613 53 -159 78 -288 92
-470 10 -128 9 -163 -4 -240 -49 -275 -269 -498 -674 -684 l-91 -42 -59 14
c-49 11 -76 27 -156 91 -107 86 -137 126 -137 180 0 20 23 106 50 191 171 530
202 924 108 1395 -27 138 -21 219 23 308 31 64 136 182 162 182 6 0 35 -13 62
-29z m1708 -148 c65 -45 259 -254 325 -351 90 -131 167 -297 204 -439 28 -104
31 -135 32 -263 1 -107 -4 -164 -17 -217 -66 -273 -185 -511 -363 -724 -96
-116 -234 -241 -292 -266 l-50 -21 -13 31 c-36 91 -289 637 -339 732 -102 194
-142 326 -175 568 -23 173 -15 199 97 328 137 155 256 319 363 499 68 115 77
127 111 145 35 19 66 13 117 -22z m1623 -348 c130 -77 329 -368 404 -593 50
-152 63 -246 57 -432 -4 -143 -9 -181 -37 -289 -86 -334 -237 -602 -457 -812
-75 -71 -185 -139 -224 -139 -28 0 -86 115 -129 250 -83 266 -183 490 -306
686 -35 56 -69 114 -75 130 -33 86 29 594 84 687 14 23 145 155 293 295 l269
252 40 -5 c22 -4 59 -17 81 -30z m1535 -198 c81 -54 194 -238 242 -393 93
-295 87 -663 -15 -968 -76 -229 -288 -565 -389 -616 l-37 -19 -49 38 c-26 21
-71 67 -100 102 -72 90 -263 273 -356 343 -124 92 -141 134 -107 266 39 150
50 241 56 455 5 145 11 218 20 237 16 31 42 52 145 118 104 66 214 164 338
303 98 110 158 157 202 157 9 0 31 -10 50 -23z m-13816 -1239 l42 -32 -30 -50
c-27 -43 -41 -54 -113 -88 -106 -49 -139 -56 -164 -33 -53 48 12 173 115 222
61 29 93 25 150 -19z m10033 -197 c105 -253 144 -441 146 -696 1 -240 -29
-384 -119 -566 -96 -194 -293 -434 -393 -476 -60 -26 -150 -19 -329 26 -174
44 -252 70 -295 99 l-27 18 35 53 c169 251 193 554 73 913 -25 73 -29 96 -20
114 14 33 106 97 250 179 121 68 125 71 339 291 l217 222 42 -41 c31 -29 52
-65 81 -136z m1344 12 c83 -113 200 -417 252 -653 48 -220 60 -343 61 -640 0
-301 -3 -320 -62 -468 -110 -272 -163 -325 -305 -302 -35 5 -119 10 -188 10
-252 0 -611 62 -898 155 -87 28 -112 40 -112 54 0 44 32 113 94 204 147 217
235 447 281 741 24 150 31 160 210 309 149 124 362 352 545 584 35 45 68 79
71 75 4 -4 27 -35 51 -69z m-11182 -278 c41 -21 59 -50 155 -256 175 -371 230
-510 447 -1124 91 -257 1184 -3516 1263 -3767 33 -106 62 -251 75 -383 11
-105 28 -160 395 -1270 819 -2472 902 -2714 1471 -4278 295 -809 336 -933 349
-1060 9 -94 18 -116 323 -862 148 -363 380 -930 515 -1260 135 -330 336 -836
447 -1125 217 -566 527 -1353 595 -1515 23 -55 100 -239 170 -410 70 -170 214
-514 321 -763 107 -249 268 -640 359 -868 220 -553 252 -615 381 -729 105 -93
121 -139 129 -375 2 -91 12 -203 20 -250 47 -255 150 -455 342 -662 52 -56
109 -129 128 -163 32 -58 99 -247 355 -1000 68 -198 140 -400 162 -449 21 -49
83 -207 137 -350 55 -144 192 -499 306 -791 313 -803 462 -1209 584 -1593 49
-154 113 -384 108 -388 -22 -20 -162 -96 -184 -100 -36 -7 -103 24 -125 58
-29 45 -537 1191 -818 1848 -266 620 -639 1521 -857 2068 -83 209 -110 292
-134 400 -44 205 -56 234 -161 401 -124 195 -333 715 -382 951 -35 170 -59
231 -125 327 -104 154 -121 186 -285 573 -360 845 -444 1052 -846 2080 -138
355 -316 809 -395 1010 -79 201 -152 395 -164 433 -46 150 -47 305 -4 459 23
85 24 270 0 358 -9 36 -40 111 -67 167 -40 81 -67 119 -131 187 -75 79 -107
104 -251 194 -81 50 -97 81 -114 214 -30 239 -102 390 -280 594 -108 125 -107
120 -115 324 -7 184 -18 239 -66 335 -83 166 -235 308 -458 430 -99 54 -133
81 -166 133 -40 63 -80 188 -439 1377 -701 2317 -761 2507 -1118 3500 -209
580 -478 1355 -576 1653 -114 351 -175 572 -306 1110 -306 1264 -520 1949
-1141 3657 -269 739 -269 742 -204 814 63 70 225 150 303 151 24 0 56 -7 72
-15z m8208 -34 c118 -60 236 -162 318 -278 122 -170 189 -426 153 -583 -27
-119 -126 -262 -210 -304 -97 -48 -119 -43 -574 114 -913 316 -1118 395 -1088
419 4 4 55 22 113 40 584 182 662 220 1125 549 55 39 101 71 103 71 1 1 28
-12 60 -28z m4488 -57 c200 -120 418 -345 559 -577 105 -173 195 -400 235
-590 24 -114 43 -327 35 -378 l-6 -37 -107 -35 c-181 -60 -436 -109 -912 -177
-267 -38 -405 -46 -540 -31 -98 11 -276 43 -284 52 -9 9 18 122 54 227 59 168
79 283 89 510 7 154 14 211 30 264 34 106 113 197 221 253 127 67 229 163 417
396 70 87 133 159 139 159 5 0 37 -16 70 -36z m-8212 -2790 c128 -33 367 -169
598 -341 239 -178 1002 -883 1124 -1039 34 -44 84 -116 110 -160 76 -129 164
-342 145 -353 -5 -3 -53 -33 -106 -66 -55 -34 -106 -73 -117 -90 -40 -63 4
-159 90 -197 61 -27 111 -20 276 37 733 258 1103 356 1706 450 410 64 467 68
965 66 273 -1 466 -6 492 -12 22 -6 54 -24 69 -40 37 -39 42 -107 19 -276 -80
-605 -290 -1102 -644 -1525 -140 -167 -580 -582 -830 -782 -444 -356 -1022
-673 -1753 -962 -546 -216 -1004 -335 -1538 -401 -219 -27 -684 -24 -875 5
-185 27 -327 60 -510 117 -261 81 -359 128 -430 206 -35 39 -37 44 -31 88 17
127 389 752 625 1051 110 139 164 241 181 341 19 113 4 198 -46 267 -1 2 -58
-37 -126 -87 -67 -50 -126 -91 -129 -91 -14 0 -30 91 -36 200 -14 304 130
1696 273 2635 114 747 155 888 283 955 45 24 131 26 215 4z m11244 -54 c158
-68 332 -391 377 -700 49 -340 67 -1186 32 -1590 -44 -519 -138 -1253 -182
-1427 -27 -106 -42 -126 -89 -121 -23 2 -45 21 -94 78 -144 167 -193 219 -215
222 -34 6 -73 -11 -87 -37 -19 -35 -5 -174 23 -244 13 -31 96 -189 186 -351
90 -162 177 -320 193 -350 17 -30 74 -100 127 -155 53 -55 122 -138 153 -185
119 -182 398 -716 607 -1162 153 -326 166 -375 113 -428 -37 -37 -91 -45 -252
-36 -594 30 -1199 268 -1924 756 -713 480 -1308 1068 -1788 1765 -168 244
-418 652 -576 937 -201 364 -432 873 -432 953 0 49 8 55 74 55 104 0 460 -116
653 -214 114 -57 220 -88 397 -117 115 -19 143 -20 176 -10 53 16 89 69 96
142 l6 54 -111 83 -110 83 20 46 c27 63 44 86 204 268 182 208 588 619 788
799 378 337 827 665 1082 790 236 117 428 150 553 96z m-4891 -1764 c318 -49
495 -80 525 -93 103 -46 154 -118 227 -316 245 -669 755 -1574 1259 -2237 357
-469 702 -833 1077 -1136 635 -514 1260 -885 1800 -1070 351 -121 630 -171
995 -180 124 -3 242 -10 263 -15 21 -6 56 -26 77 -46 36 -32 45 -51 96 -207
189 -579 306 -1429 291 -2101 -7 -334 -26 -427 -152 -765 -141 -377 -282 -714
-348 -830 -148 -262 -424 -602 -695 -857 -227 -212 -365 -338 -397 -360 -30
-20 -427 -237 -1028 -562 -538 -290 -852 -441 -1241 -596 -585 -232 -1152
-383 -1696 -450 -555 -68 -2277 -126 -3117 -105 -633 16 -1014 55 -1441 146
-331 71 -557 149 -996 347 -256 115 -215 54 -550 817 -510 1159 -599 1373
-947 2265 -83 215 -169 449 -190 521 -63 216 -155 464 -183 493 -32 33 -76
160 -76 217 0 24 -19 95 -46 170 -25 71 -86 242 -134 379 -49 138 -145 408
-215 600 -117 327 -231 648 -539 1530 -69 198 -126 371 -126 384 0 36 28 61
67 61 19 0 112 -22 208 -50 477 -137 739 -181 1080 -182 507 0 1307 179 2055
462 461 174 942 399 1205 563 411 257 867 626 1260 1022 323 325 493 551 654
874 162 323 240 593 312 1084 22 149 41 272 42 272 7 5 96 23 118 24 14 0 242
-32 506 -73z m-8359 -5658 c6 -7 111 -348 235 -758 331 -1094 327 -1080 327
-1115 0 -28 -20 -49 -211 -220 -117 -104 -225 -200 -242 -214 l-29 -25 -19 25
c-32 41 -78 141 -94 204 -15 61 -33 252 -60 630 -23 313 -30 747 -16 970 26
409 59 563 109 503z m777 -2313 c44 -13 117 -30 162 -38 159 -29 265 -103 326
-226 29 -60 32 -74 32 -161 0 -120 -19 -165 -172 -421 -157 -262 -193 -337
-193 -400 0 -44 4 -55 33 -84 36 -36 89 -52 134 -40 33 8 102 77 160 160 23
33 79 96 123 140 l82 80 59 -65 c117 -128 169 -228 169 -324 0 -84 -41 -136
-158 -201 -91 -50 -230 -162 -264 -214 -36 -53 -13 -146 44 -181 18 -11 51
-20 73 -20 44 0 138 40 210 90 118 81 251 80 410 -3 77 -41 175 -137 210 -207
33 -64 44 -171 33 -311 -11 -145 -146 -507 -243 -654 -85 -128 -218 -226 -351
-259 -67 -17 -458 -70 -639 -87 -334 -31 -641 44 -913 224 -215 142 -352 291
-452 492 -107 213 -132 377 -134 855 -1 253 1 283 22 378 32 143 65 238 126
368 65 135 102 194 219 351 105 139 113 143 246 143 148 0 167 19 220 230 39
154 73 238 121 299 61 77 150 127 205 114 11 -2 56 -15 100 -28z m-1265 -678
c0 -10 -15 -48 -34 -85 -48 -95 -107 -237 -159 -382 -77 -215 -196 -602 -208
-680 -9 -57 -9 -167 0 -460 6 -212 10 -531 9 -710 -3 -299 -1 -334 19 -440 12
-65 27 -200 33 -305 37 -639 125 -1226 292 -1935 118 -505 247 -877 434 -1253
61 -124 79 -187 51 -187 -16 0 -82 44 -286 190 -137 99 -682 552 -886 738
-406 370 -645 636 -849 945 -444 676 -655 1403 -633 2181 6 225 16 289 82 544
71 272 84 294 346 578 354 384 790 745 1230 1017 187 115 342 200 444 243 101
42 114 42 115 1z m14281 -1796 c71 -53 149 -149 261 -321 321 -490 514 -1136
578 -1930 17 -212 24 -740 11 -914 -28 -402 -107 -758 -285 -1291 -229 -684
-577 -1375 -901 -1790 -212 -271 -444 -503 -740 -737 -618 -489 -1544 -1075
-2240 -1418 -448 -220 -758 -342 -1413 -555 -355 -115 -421 -131 -464 -109
-16 8 -28 20 -28 27 0 8 29 123 65 258 118 439 146 547 160 631 22 124 33 355
45 948 7 294 15 670 20 835 4 165 6 352 4 415 -50 1368 -64 1618 -110 1960
-41 308 -119 716 -163 855 -53 166 -130 377 -151 411 -44 70 -120 114 -232
134 -92 17 -211 57 -315 105 -95 45 -258 139 -268 155 -17 28 65 127 155 187
140 94 262 133 430 140 152 6 206 -3 558 -93 140 -36 284 -68 320 -71 59 -4
71 -2 102 19 69 47 73 152 10 248 -16 24 -26 47 -22 51 8 7 253 56 470 94 176
31 243 53 352 116 61 35 121 58 215 84 852 237 1534 527 2497 1062 168 94 333
181 365 193 46 18 80 23 163 24 132 1 136 4 328 188 79 76 147 138 151 138 4
0 37 -22 72 -49z m-14160 -747 c298 -281 583 -433 944 -500 149 -28 491 -26
720 5 520 69 678 124 845 291 47 47 100 104 118 128 18 23 39 42 46 42 31 0
60 -57 126 -249 l69 -201 -33 -63 c-60 -109 -67 -148 -76 -422 -21 -610 -142
-1355 -335 -2059 -142 -520 -217 -694 -445 -1036 -169 -252 -304 -352 -476
-352 -115 1 -275 67 -414 171 -141 106 -333 327 -453 521 -305 494 -608 1613
-736 2720 -44 380 -76 897 -65 1056 l7 95 31 -28 c17 -15 74 -69 127 -119z
m4255 -618 c28 -7 134 -43 235 -79 436 -155 900 -259 1314 -297 216 -19 658
-30 1410 -36 690 -5 826 -10 824 -33 0 -3 -43 -42 -96 -86 -52 -44 -134 -122
-182 -174 -90 -98 -156 -141 -216 -141 -16 0 -84 12 -150 26 -100 21 -156 27
-337 31 -240 6 -368 -4 -564 -43 -532 -105 -949 -412 -1175 -864 -76 -153
-103 -235 -199 -607 -7 -29 -15 -41 -24 -37 -15 6 -103 208 -376 864 -273 653
-411 994 -436 1067 -47 145 -94 348 -87 386 3 20 6 37 7 37 0 0 24 -6 52 -14z
m-1128 -518 c5 -7 35 -79 66 -159 30 -80 124 -309 207 -510 552 -1330 668
-1619 751 -1862 56 -166 56 -161 -22 -173 -51 -8 -171 -1 -920 57 -449 35
-531 43 -572 61 -42 18 -48 24 -48 50 0 53 30 177 86 351 31 94 66 219 79 277
13 58 48 215 79 350 98 435 162 802 221 1262 19 153 35 284 35 293 0 18 24 20
38 3z m4062 -588 c185 -23 400 -77 579 -146 153 -58 692 -304 738 -337 47 -33
95 -95 117 -153 17 -43 95 -354 120 -475 22 -110 86 -660 120 -1044 25 -277
46 -647 47 -840 1 -161 -2 -186 -21 -238 -38 -102 -106 -172 -335 -344 -188
-142 -557 -372 -711 -445 -133 -62 -407 -100 -724 -101 -251 0 -322 12 -445
72 -184 91 -320 257 -370 451 -21 81 -16 250 10 325 44 130 177 361 278 483
33 41 66 92 74 114 36 104 -47 195 -160 174 -18 -3 -68 -34 -114 -70 -95 -76
-151 -154 -293 -413 -52 -95 -98 -173 -103 -173 -16 0 -98 62 -163 122 -115
108 -181 218 -208 350 -18 89 -20 139 -6 223 5 33 17 116 25 185 17 138 42
239 81 333 70 166 214 326 384 428 52 30 103 67 113 81 25 33 34 118 17 157
-37 90 -204 77 -388 -30 -36 -21 -114 -91 -208 -187 l-152 -153 -23 68 c-21
60 -24 86 -24 218 1 282 76 525 237 767 67 100 218 259 308 325 191 139 421
226 702 267 114 17 383 20 498 6z m-7826 -1873 c150 -90 340 -268 351 -329 14
-72 -70 -506 -119 -620 -15 -35 -19 -38 -59 -38 -110 0 -289 47 -430 113 -107
50 -121 70 -119 165 1 65 44 275 103 501 38 149 64 221 94 268 l15 22 52 -23
c29 -13 79 -40 112 -59z m15862 -84 c60 -120 16 -234 -130 -337 -59 -42 -165
-101 -171 -94 -2 2 138 411 191 558 7 20 76 -60 110 -127z m-12456 -398 c182
-24 256 -58 286 -132 17 -40 17 -185 1 -233 -7 -20 -27 -44 -47 -58 -33 -23
-40 -24 -145 -18 -191 11 -406 43 -435 64 -41 31 -56 89 -43 168 23 135 80
197 196 214 75 11 72 11 187 -5z m-2449 -208 c108 -64 210 -128 228 -143 47
-39 73 -98 79 -176 9 -127 -38 -215 -127 -242 -42 -12 -59 -12 -132 0 -235 41
-350 97 -404 196 -25 46 -27 57 -23 137 5 88 36 198 92 324 l26 59 32 -20 c18
-10 121 -71 229 -135z m3648 123 c74 -12 145 -26 158 -31 12 -4 34 -26 49 -48
24 -37 27 -53 35 -188 5 -81 5 -151 1 -154 -12 -11 -149 -30 -267 -36 -113 -6
-330 9 -399 28 -53 14 -128 91 -149 154 -24 70 -22 151 6 205 27 54 63 81 119
91 74 13 306 2 447 -21z m11400 -247 c54 -169 96 -476 72 -521 -16 -31 -174
-155 -240 -191 -31 -16 -79 -36 -107 -44 l-52 -15 -26 51 c-29 59 -73 304 -83
468 -8 127 4 151 106 223 93 65 145 92 214 111 85 23 82 25 116 -82z m-14216
-274 c152 -54 247 -65 438 -51 152 12 244 6 286 -16 50 -27 68 -61 71 -137 7
-136 -38 -225 -122 -241 -38 -7 -214 18 -541 77 -253 46 -303 60 -336 95 -22
23 -24 34 -24 112 1 74 5 97 30 150 33 74 23 73 198 11z m-1988 -134 c125 -37
329 -122 353 -148 44 -48 45 -60 38 -272 -7 -225 -24 -461 -35 -502 -10 -39
-62 -52 -134 -33 -119 30 -370 115 -480 163 l-118 51 6 60 c31 323 60 501 106
650 l21 69 76 -6 c43 -3 117 -18 167 -32z m3495 5 c150 -15 291 -40 336 -60
80 -35 128 -135 104 -220 -15 -55 -67 -106 -118 -117 -76 -16 -430 -9 -552 11
-63 10 -121 22 -129 26 -43 23 -42 182 1 269 48 95 125 115 358 91z m11965
-154 c20 -106 20 -315 0 -364 -20 -47 -50 -79 -99 -104 -55 -28 -267 -109
-277 -106 -11 4 66 181 123 283 111 201 223 384 230 377 5 -5 15 -43 23 -86z
m-10550 20 c107 -17 133 -26 161 -57 32 -36 44 -64 44 -104 0 -104 -67 -122
-476 -132 -244 -6 -253 -5 -296 16 -72 34 -81 66 -64 223 l7 67 62 4 c117 8
472 -2 562 -17z m642 -68 c32 -35 65 -108 66 -144 2 -74 -75 -100 -128 -44
-25 27 -30 40 -33 99 -4 60 -1 72 17 90 27 27 52 27 78 -1z m-4560 -92 c140
-30 330 -110 357 -150 38 -59 65 -493 43 -678 l-8 -67 -67 -7 c-38 -4 -109 -2
-163 4 -100 12 -328 73 -367 98 -13 8 -38 39 -57 69 l-35 54 0 148 c0 81 7
211 15 288 8 77 15 163 15 191 0 28 3 54 7 57 12 13 191 7 260 -7z m1096 -265
c345 -59 520 -96 551 -116 71 -47 94 -208 62 -439 -18 -127 -34 -177 -68 -213
-39 -41 -72 -45 -249 -28 -307 30 -552 65 -584 83 -17 10 -40 38 -53 64 -22
43 -23 60 -29 326 l-6 281 40 41 c30 30 49 40 72 40 17 0 136 -18 264 -39z
m14271 12 c54 -106 84 -270 115 -633 58 -667 74 -831 96 -1010 39 -315 45
-409 56 -925 12 -531 5 -756 -31 -1076 -36 -319 -84 -534 -161 -734 -87 -225
-204 -334 -394 -365 -81 -13 -518 -34 -557 -26 -43 8 -83 37 -103 77 -9 16
-22 82 -31 147 -25 195 -90 363 -203 522 -138 196 -419 449 -647 582 -185 109
-452 222 -642 272 -306 81 -667 51 -1010 -85 -614 -244 -1106 -632 -1435
-1131 -85 -129 -134 -223 -201 -388 -92 -226 -102 -235 -254 -234 -59 0 -199
4 -312 8 -243 10 -992 -14 -1425 -45 -241 -17 -446 -21 -1470 -29 -1630 -13
-1765 -8 -3250 125 -509 46 -608 60 -681 96 l-42 20 54 162 c102 310 94 498
-32 750 -119 236 -283 425 -487 559 -338 223 -747 367 -1134 400 -209 18 -784
-10 -960 -47 -216 -44 -412 -116 -708 -260 -195 -94 -281 -153 -391 -267 -140
-145 -247 -320 -401 -658 l-20 -45 -23 75 c-91 303 -155 695 -196 1210 -21
267 -30 1063 -15 1342 24 425 68 765 131 998 l11 43 53 -7 c28 -3 202 -53 386
-111 420 -133 489 -151 1065 -279 462 -102 473 -104 635 -111 190 -7 378 -23
750 -65 426 -47 726 -71 1425 -115 391 -25 1331 -39 1776 -27 213 6 402 7 421
3 92 -21 136 -68 194 -205 51 -121 608 -1420 1054 -2456 285 -663 403 -910
468 -976 78 -81 169 -98 322 -61 120 29 409 127 446 152 85 55 83 135 -9 455
-159 548 -354 1100 -656 1857 -192 483 -357 943 -369 1027 l-9 68 46 20 c56
25 1035 169 1087 161 45 -7 79 -43 93 -97 6 -23 15 -128 21 -232 15 -261 54
-558 140 -1060 45 -264 71 -357 143 -503 60 -121 108 -175 192 -217 105 -51
194 -46 490 27 432 107 1277 392 1675 566 393 171 929 459 1375 738 584 366
950 622 1337 935 485 394 502 405 798 510 336 119 538 205 1015 430 318 150
357 168 367 169 4 1 14 -11 22 -26z m-12709 -174 c105 -5 205 -15 222 -20 76
-24 95 -111 97 -429 1 -189 -1 -208 -19 -240 -34 -58 -70 -72 -183 -71 -93 0
-429 24 -517 37 -125 18 -186 64 -204 156 -16 85 -23 284 -13 396 10 115 24
144 83 175 37 20 96 19 534 -4z m6064 -35 c19 -38 21 -581 4 -1169 -16 -561
-47 -760 -184 -1210 -60 -197 -75 -236 -118 -308 l-35 -56 -37 61 c-45 73 -76
193 -113 433 -78 506 -131 1085 -143 1560 -6 247 -6 251 17 299 16 33 41 62
78 90 30 23 109 84 176 137 161 127 190 148 250 185 58 36 79 31 105 -22z
m-4656 2 c61 -25 82 -63 106 -188 29 -155 50 -300 57 -400 l7 -84 -33 -37
c-19 -22 -47 -41 -68 -46 -21 -6 -183 -9 -372 -8 -456 3 -441 -6 -461 277 -6
91 -9 220 -7 287 3 113 5 123 28 148 14 15 34 32 45 38 30 16 151 24 423 25
185 2 250 -1 275 -12z m686 -26 c23 -11 50 -38 69 -67 57 -90 165 -369 207
-533 9 -36 18 -73 21 -82 9 -31 -91 -53 -241 -52 -146 1 -195 15 -220 64 -15
30 -30 192 -40 440 -6 146 -5 157 15 188 37 60 119 78 189 42z m1691 -495 c61
-32 109 -85 125 -138 24 -81 20 -104 -24 -148 -25 -25 -48 -39 -65 -39 -39 0
-99 60 -131 131 -33 74 -57 200 -41 212 16 12 100 1 136 -18z m1253 -66 c40
-54 -17 -96 -189 -140 -152 -38 -316 -59 -465 -59 l-119 0 0 74 c0 61 3 75 18
81 9 4 89 9 177 10 155 3 294 20 400 50 28 7 74 13 104 12 45 -2 57 -6 74 -28z
m-6482 -2485 c205 -28 498 -112 667 -190 164 -75 367 -231 495 -379 127 -147
193 -292 204 -448 23 -351 -298 -719 -724 -827 -73 -19 -78 -19 -112 -3 -70
36 -89 90 -90 263 -1 107 -37 365 -80 577 -43 214 -108 335 -196 369 -43 16
-51 16 -88 3 -64 -22 -82 -56 -81 -147 1 -59 10 -105 39 -197 80 -253 101
-403 92 -644 -6 -166 -19 -216 -74 -280 -68 -80 -142 -104 -448 -145 -274 -37
-400 -47 -475 -37 -185 25 -223 91 -237 417 -10 245 22 411 124 628 86 182 83
260 -12 306 -94 46 -155 11 -255 -146 -36 -57 -106 -267 -146 -440 -25 -108
-28 -136 -28 -309 0 -104 2 -232 5 -283 4 -92 4 -94 -24 -118 -34 -29 -100
-32 -249 -9 -192 29 -351 101 -419 189 -65 85 -107 246 -116 441 -12 279 77
544 268 798 168 223 351 352 575 402 44 10 128 42 189 71 183 88 359 129 625
143 250 14 452 12 571 -5z m11584 -202 c381 -82 715 -307 1043 -700 150 -180
190 -270 199 -442 6 -124 -8 -196 -63 -307 -61 -125 -156 -203 -291 -238 -104
-27 -95 -41 -126 178 -38 258 -73 448 -98 527 -27 86 -124 282 -154 310 -33
31 -101 37 -150 14 -28 -13 -43 -29 -58 -63 -18 -42 -19 -51 -8 -106 7 -33 32
-121 56 -196 60 -187 79 -322 72 -519 -6 -181 -21 -243 -74 -301 -45 -50 -104
-80 -211 -109 -82 -22 -86 -22 -370 -11 -319 13 -559 34 -612 52 -116 41 -130
91 -150 534 -17 376 -27 431 -87 470 -36 24 -112 25 -147 2 -66 -44 -80 -135
-70 -462 12 -372 7 -425 -52 -493 -69 -81 -200 -106 -559 -107 -228 0 -242 1
-281 22 -97 52 -139 144 -137 303 3 215 86 416 255 620 419 504 822 814 1238
953 109 36 257 71 370 87 103 14 361 4 465 -18z"/>
<path d="M16740 32797 c-119 -29 -214 -90 -336 -219 -204 -218 -325 -457 -374
-744 -39 -226 -23 -426 51 -649 123 -370 329 -568 664 -640 110 -24 349 -25
468 -1 382 74 729 339 893 682 72 150 88 223 88 404 -1 139 -3 164 -27 245
-88 295 -327 589 -597 734 -108 58 -191 87 -336 116 -71 15 -167 37 -212 50
-106 31 -210 38 -282 22z m170 -343 c35 -8 125 -24 199 -35 239 -35 386 -104
531 -249 125 -125 204 -272 236 -438 38 -200 -7 -354 -154 -527 -149 -175
-357 -301 -589 -356 -152 -37 -346 -11 -485 63 -124 66 -226 220 -294 443 -26
84 -28 102 -28 270 0 166 2 187 26 265 51 163 121 292 236 433 60 74 119 120
173 135 49 14 75 14 149 -4z"/>
<path d="M16945 31969 c-40 -11 -101 -63 -130 -109 -37 -59 -57 -142 -56 -238
1 -136 39 -231 122 -306 67 -61 120 -81 219 -81 74 0 93 4 151 31 83 40 158
114 200 200 28 56 34 80 37 154 4 78 1 94 -20 142 -14 30 -39 70 -56 89 -40
46 -131 94 -213 114 -69 16 -206 19 -254 4z"/>
<path d="M13853 31876 c-175 -57 -232 -267 -127 -470 54 -103 79 -186 124
-405 57 -278 81 -359 143 -498 95 -213 190 -344 282 -388 57 -27 151 -31 217
-9 39 13 69 33 114 78 116 116 165 277 145 470 -43 397 -361 1005 -606 1161
-103 65 -211 88 -292 61z m382 -701 c135 -206 188 -385 183 -610 l-3 -118 -61
72 c-71 84 -116 188 -164 381 -27 105 -80 390 -80 427 0 20 61 -54 125 -152z"/>
<path d="M25394 31886 c-21 -9 -39 -29 -54 -61 -21 -43 -22 -52 -11 -100 7
-29 28 -86 47 -126 135 -281 200 -511 241 -859 25 -209 25 -748 0 -950 -45
-361 -116 -650 -244 -995 -73 -196 -68 -291 18 -337 63 -34 134 -16 185 46 35
42 98 165 125 245 40 115 95 176 180 202 21 6 267 9 669 9 656 -1 749 4 819
39 125 64 97 222 -46 260 -24 7 -286 15 -677 20 -583 9 -640 11 -673 28 -76
38 -97 116 -59 216 36 96 107 125 259 108 148 -17 420 -14 492 4 127 33 167
70 167 153 0 103 -41 126 -263 141 -279 20 -493 43 -526 56 -48 20 -73 68 -73
138 0 48 4 62 24 82 13 13 36 27 51 31 14 3 187 -4 383 -16 376 -24 456 -22
525 8 98 45 134 135 84 210 -43 66 -60 70 -414 92 -528 33 -597 45 -641 110
-21 32 -23 44 -20 127 2 50 6 94 9 97 7 7 244 -10 344 -25 116 -17 487 -23
640 -10 200 17 448 54 706 106 284 58 264 52 295 83 43 43 64 84 64 127 0 85
-50 116 -200 122 -109 5 -120 3 -654 -92 -289 -52 -573 -53 -956 -5 -196 25
-238 35 -294 70 -55 35 -79 76 -151 260 -89 227 -137 305 -228 371 -45 32 -92
37 -143 15z"/>
<path d="M15927 25589 c-120 -28 -222 -131 -278 -278 -56 -148 -61 -190 -138
-1141 l-39 -475 29 -185 c59 -386 83 -440 199 -440 57 0 121 36 215 121 181
163 392 327 801 622 315 228 344 258 344 362 0 51 -36 168 -76 248 -32 62
-325 561 -431 732 -216 347 -413 484 -626 434z m219 -424 c66 -65 232 -309
338 -497 76 -134 206 -395 206 -412 0 -14 -107 -120 -206 -203 -143 -121 -356
-274 -516 -371 l-67 -41 -20 34 c-49 84 -59 240 -37 560 36 505 66 852 78 894
6 25 27 60 48 82 36 38 37 38 76 27 25 -8 61 -34 100 -73z"/>
<path d="M26105 25496 c-156 -36 -293 -110 -424 -232 -89 -82 -174 -184 -373
-445 -179 -234 -312 -391 -421 -497 -60 -58 -77 -81 -82 -111 -15 -93 41 -142
423 -377 411 -252 602 -385 777 -544 156 -141 254 -156 347 -52 75 83 131 233
201 542 58 251 94 493 122 820 25 284 -1 488 -84 665 -48 104 -105 166 -187
206 -53 26 -78 32 -151 35 -52 2 -113 -2 -148 -10z m121 -325 c79 -36 116
-106 144 -272 22 -128 -50 -720 -127 -1044 -20 -86 -67 -209 -88 -233 -5 -5
-254 148 -410 251 -249 166 -465 333 -465 358 0 66 260 396 583 741 134 143
178 180 242 205 43 17 74 15 121 -6z"/>
<path d="M17285 19609 c-27 -5 -111 -21 -185 -35 -257 -49 -359 -129 -321
-255 25 -84 126 -101 319 -54 368 89 671 31 1033 -198 147 -92 390 -271 479
-352 128 -116 164 -138 232 -143 99 -7 147 30 151 117 3 76 -98 206 -268 346
-367 302 -724 494 -1040 560 -94 20 -329 28 -400 14z"/>
<path d="M23615 19170 c-248 -45 -484 -115 -750 -222 -203 -82 -610 -272 -653
-304 -47 -36 -72 -81 -72 -129 0 -46 19 -74 70 -104 73 -44 140 -27 450 111
327 147 579 239 827 303 395 103 681 56 1005 -164 162 -109 223 -122 287 -62
61 57 45 137 -50 244 -92 105 -280 219 -449 272 -209 65 -483 88 -665 55z"/>
<path d="M18321 17910 c-18 -4 -47 -22 -64 -39 -26 -25 -31 -40 -35 -90 -14
-189 80 -360 248 -453 134 -75 388 -148 582 -168 98 -11 179 -9 608 14 272 15
554 31 625 36 337 25 556 -7 845 -123 235 -94 219 -92 735 -90 255 0 493 6
549 12 253 29 455 151 543 327 35 72 38 84 38 163 0 72 -4 95 -26 141 -45 95
-151 180 -225 180 -65 0 -134 -65 -134 -127 0 -13 13 -64 29 -114 l30 -92 -53
-52 c-93 -93 -168 -119 -396 -135 -406 -28 -720 1 -1021 95 -430 134 -726 169
-1115 130 -317 -31 -760 -65 -857 -65 -56 0 -147 7 -202 15 -321 49 -457 141
-553 377 -20 49 -85 74 -151 58z"/>
</g>
</svg>
